<?xml version="1.0" encoding="UTF-8"?>
<svg version="1.1" xmlns="http://www.w3.org/2000/svg" width="50" height="50">
<path d="M0 0 C8.58 0 17.16 0 26 0 C26 1.32 26 2.64 26 4 C33.92 4 41.84 4 50 4 C50 15.22 50 26.44 50 38 C46.7 38 43.4 38 40 38 C40 37.34 40 36.68 40 36 C39.34 36 38.68 36 38 36 C38 36.66 38 37.32 38 38 C29.42 38 20.84 38 12 38 C12 37.34 12 36.68 12 36 C11.34 36 10.68 36 10 36 C10 36.66 10 37.32 10 38 C6.7 38 3.4 38 0 38 C0 25.46 0 12.92 0 0 Z M2 3 C1.8992188 5.36398468 1.86026785 7.69811311 1.8671875 10.0625 C1.86623077 10.76898682 1.86527405 11.47547363 1.86428833 12.20336914 C1.86360667 13.69970793 1.86545995 15.19604967 1.86962891 16.69238281 C1.87497743 18.99030157 1.86968349 21.28802486 1.86328125 23.5859375 C1.86394203 25.03645877 1.8652232 26.48697991 1.8671875 27.9375 C1.86516327 28.6291626 1.86313904 29.3208252 1.86105347 30.03344727 C1.59769267 33.29735638 1.59769267 33.29735638 3 36 C4.66617115 36.04063832 6.33388095 36.042721 8 36 C8 35.34 8 34.68 8 34 C9.98 34 11.96 34 14 34 C14 34.66 14 35.32 14 36 C21.26 36 28.52 36 36 36 C36 35.34 36 34.68 36 34 C37.98 34 39.96 34 42 34 C42 34.66 42 35.32 42 36 C43.66611905 36.042721 45.33382885 36.04063832 47 36 C48.83034055 34.16965945 48.13042797 31.26788008 48.1328125 28.8125 C48.13410156 27.55695312 48.13539062 26.30140625 48.13671875 25.0078125 C48.13462402 24.35071289 48.1325293 23.69361328 48.13037109 23.01660156 C48.12502234 21.00838665 48.13031691 19.00039541 48.13671875 16.9921875 C48.13542969 15.73664062 48.13414063 14.48109375 48.1328125 13.1875 C48.13112061 11.44533203 48.13112061 11.44533203 48.12939453 9.66796875 C48.30337474 7.07936716 48.30337474 7.07936716 47 6 C45.29227642 5.91286169 43.58101351 5.89299993 41.87109375 5.90234375 C40.83662109 5.90556641 39.80214844 5.90878906 38.73632812 5.91210938 C37.64771484 5.92048828 36.55910156 5.92886719 35.4375 5.9375 C34.34501953 5.94201172 33.25253906 5.94652344 32.12695312 5.95117188 C29.41791505 5.96300174 26.70898401 5.97948457 24 6 C23.67 4.68 23.34 3.36 23 2 C19.68751813 1.97111854 16.37506833 1.95324201 13.0625 1.9375 C11.64420898 1.92493164 11.64420898 1.92493164 10.19726562 1.91210938 C9.29814453 1.90888672 8.39902344 1.90566406 7.47265625 1.90234375 C6.64000244 1.89710693 5.80734863 1.89187012 4.94946289 1.88647461 C2.99483202 1.78356708 2.99483202 1.78356708 2 3 Z " fill="#000000" transform="translate(0,7)"/>
<path d="M0 0 C1.99954746 -0.04254356 4.00041636 -0.04080783 6 0 C7 1 7 1 7.09765625 3.28515625 C7.08605469 4.20167969 7.07445312 5.11820313 7.0625 6.0625 C7.05347656 6.98160156 7.04445313 7.90070312 7.03515625 8.84765625 C7.02355469 9.55792969 7.01195312 10.26820312 7 11 C8.32 11.66 9.64 12.32 11 13 C11 13.99 11 14.98 11 16 C6.05 16 1.1 16 -4 16 C-4 15.01 -4 14.02 -4 13 C-2.68 12.34 -1.36 11.68 0 11 C0 7.37 0 3.74 0 0 Z " fill="#000000" transform="translate(10,18)"/>
<path d="M0 0 C5.94 0 11.88 0 18 0 C18 0.66 18 1.32 18 2 C12.06 2 6.12 2 0 2 C0 1.34 0 0.68 0 0 Z " fill="#000000" transform="translate(26,32)"/>
<path d="M0 0 C5.94 0 11.88 0 18 0 C18 0.66 18 1.32 18 2 C12.06 2 6.12 2 0 2 C0 1.34 0 0.68 0 0 Z " fill="#000000" transform="translate(26,27)"/>
<path d="M0 0 C5.94 0 11.88 0 18 0 C18 0.66 18 1.32 18 2 C12.06 2 6.12 2 0 2 C0 1.34 0 0.68 0 0 Z " fill="#000000" transform="translate(26,22)"/>
</svg>
