<?xml version="1.0" encoding="UTF-8"?>
<svg version="1.1" xmlns="http://www.w3.org/2000/svg" width="166" height="180">
<path d="M0 0 C54.78 0 109.56 0 166 0 C166 59.4 166 118.8 166 180 C111.22 180 56.44 180 0 180 C0 120.6 0 61.2 0 0 Z " fill="#6C419A" transform="translate(0,0)"/>
<path d="M0 0 C2.08749077 0.00560732 4.17498553 0.00987204 6.26248169 0.01286316 C11.71058384 0.02422255 17.15843942 0.05361137 22.60644531 0.0869751 C28.18421088 0.11786978 33.76201696 0.13140964 39.33984375 0.14648438 C50.2501073 0.17849098 61.16018926 0.22957736 72.0703125 0.29296875 C72.23434995 16.4966896 72.35752407 32.7001382 72.4329977 48.90449047 C72.46898412 56.42969322 72.51798326 63.95437796 72.59838867 71.47924805 C72.66849458 78.04339115 72.71339866 84.60715885 72.72893196 91.17166597 C72.73800226 94.64284781 72.75908314 98.11295639 72.8104229 101.58379173 C73.20297392 129.19574098 73.20297392 129.19574098 65.0703125 139.29296875 C64.09746559 140.6198597 64.09746559 140.6198597 63.10496521 141.97355652 C61.49280744 144.14482648 59.8040594 146.2185104 58.0703125 148.29296875 C57.3071875 149.30359375 56.5440625 150.31421875 55.7578125 151.35546875 C55.2009375 151.99484375 54.6440625 152.63421875 54.0703125 153.29296875 C53.4103125 153.29296875 52.7503125 153.29296875 52.0703125 153.29296875 C51.5753125 150.81796875 51.5753125 150.81796875 51.0703125 148.29296875 C50.0803125 148.29296875 49.0903125 148.29296875 48.0703125 148.29296875 C48.0703125 147.63296875 48.0703125 146.97296875 48.0703125 146.29296875 C47.4103125 146.29296875 46.7503125 146.29296875 46.0703125 146.29296875 C46.0703125 145.63296875 46.0703125 144.97296875 46.0703125 144.29296875 C45.4103125 144.29296875 44.7503125 144.29296875 44.0703125 144.29296875 C42.73828125 142.9375 42.73828125 142.9375 41.2578125 141.10546875 C39.32962704 138.7661261 37.43573474 136.67249272 35.2578125 134.54296875 C33.0703125 132.29296875 33.0703125 132.29296875 32.0703125 129.29296875 C30.05522892 128.55973079 30.05522892 128.55973079 28.0703125 128.29296875 C28.0703125 127.30296875 28.0703125 126.31296875 28.0703125 125.29296875 C27.4103125 125.29296875 26.7503125 125.29296875 26.0703125 125.29296875 C24.69329952 124.00479531 23.36387077 122.66492449 22.0703125 121.29296875 C21.4928125 120.71546875 20.9153125 120.13796875 20.3203125 119.54296875 C19.9078125 119.13046875 19.4953125 118.71796875 19.0703125 118.29296875 C17.4203125 118.95296875 15.7703125 119.61296875 14.0703125 120.29296875 C15.4625 120.69515625 15.4625 120.69515625 16.8828125 121.10546875 C19.83271616 122.20445246 21.12646436 122.91715436 23.0703125 125.29296875 C22.0803125 125.29296875 21.0903125 125.29296875 20.0703125 125.29296875 C19.7403125 124.96296875 19.4103125 124.63296875 19.0703125 124.29296875 C15.34886705 123.94188899 12.94111856 123.76590193 9.6953125 125.73046875 C7.35956227 129.41376718 7.25368065 133.00215413 7.0703125 137.29296875 C6.7403125 137.29296875 6.4103125 137.29296875 6.0703125 137.29296875 C6.0703125 132.67296875 6.0703125 128.05296875 6.0703125 123.29296875 C8.0503125 122.96296875 10.0303125 122.63296875 12.0703125 122.29296875 C10.5853125 120.31296875 10.5853125 120.31296875 9.0703125 118.29296875 C12.0703125 116.29296875 12.0703125 116.29296875 15.0703125 116.29296875 C13.73859267 112.29780927 11.26135789 110.94085748 8.0703125 108.29296875 C8.0703125 107.63296875 8.0703125 106.97296875 8.0703125 106.29296875 C2.4603125 106.29296875 -3.1496875 106.29296875 -8.9296875 106.29296875 C-8.9296875 105.96296875 -8.9296875 105.63296875 -8.9296875 105.29296875 C-0.6796875 105.29296875 7.5703125 105.29296875 16.0703125 105.29296875 C16.0703125 103.31296875 16.0703125 101.33296875 16.0703125 99.29296875 C9.1403125 99.29296875 2.2103125 99.29296875 -4.9296875 99.29296875 C-4.9296875 93.35296875 -4.9296875 87.41296875 -4.9296875 81.29296875 C1.3403125 81.29296875 7.6103125 81.29296875 14.0703125 81.29296875 C14.0703125 79.31296875 14.0703125 77.33296875 14.0703125 75.29296875 C7.8003125 75.29296875 1.5303125 75.29296875 -4.9296875 75.29296875 C-4.9296875 69.68296875 -4.9296875 64.07296875 -4.9296875 58.29296875 C1.6703125 58.29296875 8.2703125 58.29296875 15.0703125 58.29296875 C15.0703125 56.64296875 15.0703125 54.99296875 15.0703125 53.29296875 C6.4903125 53.29296875 -2.0896875 53.29296875 -10.9296875 53.29296875 C-10.9296875 70.12296875 -10.9296875 86.95296875 -10.9296875 104.29296875 C-11.9196875 103.79796875 -11.9196875 103.79796875 -12.9296875 103.29296875 C-12.95546875 102.02839844 -12.98125 100.76382813 -13.0078125 99.4609375 C-13.06409016 97.80074657 -13.12143757 96.14059165 -13.1796875 94.48046875 C-13.19386719 93.64708984 -13.20804688 92.81371094 -13.22265625 91.95507812 C-13.25665613 87.10019748 -13.25665613 87.10019748 -15.9765625 83.34375 C-16.94335938 82.82361328 -16.94335938 82.82361328 -17.9296875 82.29296875 C-17.9296875 81.63296875 -17.9296875 80.97296875 -17.9296875 80.29296875 C-18.5896875 80.29296875 -19.2496875 80.29296875 -19.9296875 80.29296875 C-22.53704236 78.23108562 -23.79624553 77.04684417 -24.38378906 73.72753906 C-24.3628418 72.78491211 -24.34189453 71.84228516 -24.3203125 70.87109375 C-24.30742188 69.84628906 -24.29453125 68.82148437 -24.28125 67.765625 C-24.24773437 66.70214844 -24.21421875 65.63867188 -24.1796875 64.54296875 C-24.16164062 63.46402344 -24.14359375 62.38507812 -24.125 61.2734375 C-24.07790165 58.61238087 -24.0121435 55.95312621 -23.9296875 53.29296875 C-26.8996875 53.78796875 -26.8996875 53.78796875 -29.9296875 54.29296875 C-30.2596875 64.85296875 -30.5896875 75.41296875 -30.9296875 86.29296875 C-31.2596875 86.29296875 -31.5896875 86.29296875 -31.9296875 86.29296875 C-31.93379639 85.71329346 -31.93790527 85.13361816 -31.94213867 84.53637695 C-31.97518027 81.89172766 -32.04583014 79.24935036 -32.1171875 76.60546875 C-32.12298828 75.69345703 -32.12878906 74.78144531 -32.13476562 73.84179688 C-32.28477109 69.25829651 -32.37690888 66.99309399 -35.2890625 63.3046875 C-36.16046875 62.64082031 -37.031875 61.97695313 -37.9296875 61.29296875 C-41.75938547 58.16668469 -44.89659669 55.19265694 -47.9296875 51.29296875 C-48.5896875 50.96296875 -49.2496875 50.63296875 -49.9296875 50.29296875 C-49.9296875 49.63296875 -49.9296875 48.97296875 -49.9296875 48.29296875 C-50.5896875 48.29296875 -51.2496875 48.29296875 -51.9296875 48.29296875 C-51.9296875 47.63296875 -51.9296875 46.97296875 -51.9296875 46.29296875 C-52.5896875 46.29296875 -53.2496875 46.29296875 -53.9296875 46.29296875 C-53.9296875 45.63296875 -53.9296875 44.97296875 -53.9296875 44.29296875 C-54.5896875 44.29296875 -55.2496875 44.29296875 -55.9296875 44.29296875 C-57.62109375 42.6484375 -57.62109375 42.6484375 -59.4921875 40.48046875 C-60.11222656 39.77277344 -60.73226562 39.06507812 -61.37109375 38.3359375 C-62.9296875 36.29296875 -62.9296875 36.29296875 -63.9296875 33.29296875 C-64.7134375 33.21046875 -65.4971875 33.12796875 -66.3046875 33.04296875 C-68.9296875 32.29296875 -68.9296875 32.29296875 -70.1171875 30.29296875 C-70.3853125 29.63296875 -70.6534375 28.97296875 -70.9296875 28.29296875 C-71.5896875 27.96296875 -72.2496875 27.63296875 -72.9296875 27.29296875 C-67.98228751 16.13706681 -53.17979557 9.85139181 -42.4296875 5.48046875 C-28.09859079 0.47183678 -15.01746018 -0.11961139 0 0 Z " fill="#5A2E8E" transform="translate(93.9296875,-0.29296875)"/>
<path d="M0 0 C1.70736328 0.56074219 1.70736328 0.56074219 3.44921875 1.1328125 C22.54332148 7.95697702 37.78923399 20.20524558 49 37 C49.796875 39.41015625 49.796875 39.41015625 50 41 C49.34 40.67 48.68 40.34 48 40 C47.62875 40.928125 47.62875 40.928125 47.25 41.875 C45.77753937 44.37818306 44.58971163 44.83045281 42 46 C41.67 46.66 41.34 47.32 41 48 C29.12 48 17.24 48 5 48 C5.99 47.34 6.98 46.68 8 46 C5.9254644 45.8509288 5.9254644 45.8509288 4 47 C4 49.31 4 51.62 4 54 C2.35 54 0.7 54 -1 54 C-1 52.35 -1 50.7 -1 49 C-9.58 49 -18.16 49 -27 49 C-27 65.83 -27 82.66 -27 100 C-27.99 99.505 -27.99 99.505 -29 99 C-29.02578125 97.73542969 -29.0515625 96.47085938 -29.078125 95.16796875 C-29.13440266 93.50777782 -29.19175007 91.8476229 -29.25 90.1875 C-29.26417969 89.35412109 -29.27835938 88.52074219 -29.29296875 87.66210938 C-29.32696863 82.80722873 -29.32696863 82.80722873 -32.046875 79.05078125 C-33.01367188 78.53064453 -33.01367188 78.53064453 -34 78 C-34 77.34 -34 76.68 -34 76 C-34.66 76 -35.32 76 -36 76 C-38.60735486 73.93811687 -39.86655803 72.75387542 -40.45410156 69.43457031 C-40.4331543 68.49194336 -40.41220703 67.54931641 -40.390625 66.578125 C-40.37773438 65.55332031 -40.36484375 64.52851562 -40.3515625 63.47265625 C-40.31804687 62.40917969 -40.28453125 61.34570312 -40.25 60.25 C-40.23195312 59.17105469 -40.21390625 58.09210937 -40.1953125 56.98046875 C-40.14821415 54.31941212 -40.082456 51.66015746 -40 49 C-42.97 49.495 -42.97 49.495 -46 50 C-46.33 60.56 -46.66 71.12 -47 82 C-47.33 82 -47.66 82 -48 82 C-48.00410889 81.42032471 -48.00821777 80.84064941 -48.01245117 80.2434082 C-48.04549277 77.59875891 -48.11614264 74.95638161 -48.1875 72.3125 C-48.19330078 71.40048828 -48.19910156 70.48847656 -48.20507812 69.54882812 C-48.35508359 64.96532776 -48.44722138 62.70012524 -51.359375 59.01171875 C-52.23078125 58.34785156 -53.1021875 57.68398438 -54 57 C-57.82969797 53.87371594 -60.96690919 50.89968819 -64 47 C-64.66 46.67 -65.32 46.34 -66 46 C-66 45.34 -66 44.68 -66 44 C-66.66 44 -67.32 44 -68 44 C-68 43.34 -68 42.68 -68 42 C-68.66 42 -69.32 42 -70 42 C-70 41.34 -70 40.68 -70 40 C-70.66 40 -71.32 40 -72 40 C-73.69140625 38.35546875 -73.69140625 38.35546875 -75.5625 36.1875 C-76.18253906 35.47980469 -76.80257812 34.77210937 -77.44140625 34.04296875 C-79 32 -79 32 -80 29 C-80.78375 28.9175 -81.5675 28.835 -82.375 28.75 C-85 28 -85 28 -86.1875 26 C-86.455625 25.34 -86.72375 24.68 -87 24 C-87.66 23.67 -88.32 23.34 -89 23 C-84.05260001 11.84409806 -69.25010807 5.55842306 -58.5 1.1875 C-39.28173136 -5.64156065 -19.42796616 -6.44090752 0 0 Z " fill="#592C8E" transform="translate(110,4)"/>
<path d="M0 0 C8.58 0 17.16 0 26 0 C26 1.65 26 3.3 26 5 C19.4 5 12.8 5 6 5 C6 10.61 6 16.22 6 22 C12.27 22 18.54 22 25 22 C25 23.98 25 25.96 25 28 C18.73 28 12.46 28 6 28 C6 33.94 6 39.88 6 46 C12.93 46 19.86 46 27 46 C27 47.98 27 49.96 27 52 C24.36 52.33 21.72 52.66 19 53 C19 53.66 19 54.32 19 55 C19.99 55.33 20.98 55.66 22 56 C24.1875 57.875 24.1875 57.875 26 60 C26 60.99 26 61.98 26 63 C24.02 63.99 24.02 63.99 22 65 C22.33 66.32 22.66 67.64 23 69 C22.21625 69.165 21.4325 69.33 20.625 69.5 C17.8906529 70.70396899 17.8906529 70.70396899 17.22265625 72.9140625 C16.73586948 74.92516699 16.36146745 76.962638 16 79 C15.01 79 14.02 79 13 79 C13.33 79.61875 13.66 80.2375 14 80.875 C15 83 15 83 15 85 C15.33 85.66 15.66 86.32 16 87 C14.02 87.495 14.02 87.495 12 88 C12 83.33333333 12 78.66666667 12 74 C11.67 78.29 11.34 82.58 11 87 C9.68 87 8.36 87 7 87 C6.67 82.71 6.34 78.42 6 74 C6 77.3 6 80.6 6 84 C4.68 84 3.36 84 2 84 C1.5875 84.495 1.175 84.99 0.75 85.5 C-1.68802654 87.58973703 -3.93780519 87.48536752 -7.05859375 87.3359375 C-9 87 -9 87 -11.5 85.5625 C-13.73570183 81.74317604 -13.76004105 78.31481639 -13 74 C-11.5 71.4375 -11.5 71.4375 -9 70 C-6.21791045 69.4584047 -3.77646536 69.40829427 -1 70 C1.5 72 1.5 72 3 74 C2.88693303 72.04105639 2.88693303 72.04105639 2 70 C-2.35378764 67.22940787 -6.15990481 68.17964488 -11 69 C-11.33 68.01 -11.66 67.02 -12 66 C-13.485 65.01 -13.485 65.01 -15 64 C-15.33 64.99 -15.66 65.98 -16 67 C-16.75925781 66.95359375 -17.51851562 66.9071875 -18.30078125 66.859375 C-19.29464844 66.82328125 -20.28851563 66.7871875 -21.3125 66.75 C-22.29863281 66.70359375 -23.28476562 66.6571875 -24.30078125 66.609375 C-27.0926501 66.74613406 -27.0926501 66.74613406 -28.83984375 68.765625 C-30.06039551 71.11631727 -30.35220786 72.38347885 -30.25 75 C-30.23453125 75.66 -30.2190625 76.32 -30.203125 77 C-29.99225298 79.07627831 -29.55609848 80.99086999 -29 83 C-27.39602723 83.16852247 -25.7918131 83.33474886 -24.1875 83.5 C-23.29417969 83.5928125 -22.40085937 83.685625 -21.48046875 83.78125 C-18.91694901 84.04392401 -18.91694901 84.04392401 -16 84 C-16.33 84.99 -16.66 85.98 -17 87 C-26.96651077 87.78545181 -26.96651077 87.78545181 -31.125 84.625 C-34.39820019 80.04251973 -34.5274832 76.53377835 -34 71 C-32.26052937 66.78865005 -30.1469924 64.84310774 -26 63 C-23.32079806 62.48706729 -20.72616602 62.23103102 -18 62 C-17.92572162 58.65747276 -17.93453047 56.1964086 -19 53 C-16.36 53 -13.72 53 -11 53 C-11.33 52.34 -11.66 51.68 -12 51 C-12.08543895 48.89471067 -12.10714725 46.78668843 -12.09765625 44.6796875 C-12.09443359 43.42285156 -12.09121094 42.16601562 -12.08789062 40.87109375 C-12.07951172 39.55238281 -12.07113281 38.23367187 -12.0625 36.875 C-12.05748489 35.53515789 -12.05292201 34.195314 -12.04882812 32.85546875 C-12.03701086 29.57026794 -12.02053617 26.28515603 -12 23 C-11.01 23.66 -10.02 24.32 -9 25 C-9 25.66 -9 26.32 -9 27 C-8.34 27 -7.68 27 -7 27 C-7 27.66 -7 28.32 -7 29 C-6.360625 29.309375 -5.72125 29.61875 -5.0625 29.9375 C-3 31 -3 31 -2 32 C-1.505 40.91 -1.505 40.91 -1 50 C-0.67 33.5 -0.34 17 0 0 Z " fill="#6D439C" transform="translate(83,53)"/>
<path d="M0 0 C23.76 0 47.52 0 72 0 C72 0.33 72 0.66 72 1 C70.9584375 1.20753906 69.916875 1.41507812 68.84375 1.62890625 C43.97165106 6.85789929 23.71701083 18.72082836 8.97265625 39.9140625 C5.79688736 44.78849847 3.05691842 49.55521594 1 55 C0.67 55 0.34 55 0 55 C0 36.85 0 18.7 0 0 Z " fill="#FBFAFB" transform="translate(0,0)"/>
<path d="M0 0 C23.76 0 47.52 0 72 0 C72 18.15 72 36.3 72 55 C70 52 70 52 68.44140625 49.1015625 C56.47971453 26.96870256 38.22454847 11.49739835 14 4 C9.37281179 2.80951552 4.69780766 1.86631236 0 1 C0 0.67 0 0.34 0 0 Z " fill="#FBFAFB" transform="translate(94,0)"/>
<path d="M0 0 C1.72640424 2.58960636 3.0891206 5.11066071 4.5 7.875 C9.9181227 17.83905979 16.86605754 27.17341234 26 34 C26.96679688 34.72832031 27.93359375 35.45664063 28.9296875 36.20703125 C41.85976774 45.67869973 56.0978543 51.57750118 72 54 C72 54.33 72 54.66 72 55 C48.24 55 24.48 55 0 55 C0 36.85 0 18.7 0 0 Z " fill="#FBFAFB" transform="translate(0,125)"/>
<path d="M0 0 C0.33 0 0.66 0 1 0 C1 17.82 1 35.64 1 54 C-23.09 54 -47.18 54 -72 54 C-72 53.67 -72 53.34 -72 53 C-70.84886719 52.81566406 -69.69773437 52.63132813 -68.51171875 52.44140625 C-45.66835535 48.42704066 -25.205135 37.73985117 -11 19 C-6.89552719 12.88664789 -3.23211713 6.62286578 0 0 Z " fill="#FBFAFB" transform="translate(165,126)"/>
<path d="M0 0 C8 0 8 0 9.78759766 1.39501953 C10.15933105 2.05099121 10.53106445 2.70696289 10.9140625 3.3828125 C11.3584668 4.12813232 11.80287109 4.87345215 12.26074219 5.64135742 C12.71094727 6.46095947 13.16115234 7.28056152 13.625 8.125 C14.64164529 9.85379698 15.65994774 11.58162025 16.6796875 13.30859375 C17.21045898 14.22753418 17.74123047 15.14647461 18.28808594 16.09326172 C21.30295136 21.21234155 24.54066094 26.18904663 27.75 31.1875 C29.8125 34.425625 31.875 37.66375 34 41 C34.33 27.47 34.66 13.94 35 0 C36.98 0 38.96 0 41 0 C41 16.83 41 33.66 41 51 C33 51 33 51 30.90527344 49.19018555 C30.39512695 48.3475415 29.88498047 47.50489746 29.359375 46.63671875 C28.76906494 45.69513916 28.17875488 44.75355957 27.57055664 43.78344727 C26.96977295 42.76178467 26.36898926 41.74012207 25.75 40.6875 C25.11247803 39.65616943 24.47495605 38.62483887 23.81811523 37.56225586 C22.50451947 35.43426013 21.20240761 33.29913455 19.91162109 31.15722656 C17.59689826 27.33423861 15.20659019 23.56326161 12.80200195 19.79638672 C10.51863831 16.20774025 8.26186767 12.6022337 6 9 C6 22.86 6 36.72 6 51 C4.02 51 2.04 51 0 51 C0 34.17 0 17.34 0 0 Z " fill="#F7F1FA" transform="translate(29,53)"/>
<path d="M0 0 C8.58 0 17.16 0 26 0 C26 1.65 26 3.3 26 5 C19.4 5 12.8 5 6 5 C6 10.61 6 16.22 6 22 C12.27 22 18.54 22 25 22 C25 23.98 25 25.96 25 28 C18.73 28 12.46 28 6 28 C6 33.94 6 39.88 6 46 C12.93 46 19.86 46 27 46 C27 47.65 27 49.3 27 51 C18.09 51 9.18 51 0 51 C0 34.17 0 17.34 0 0 Z " fill="#FDF7FD" transform="translate(83,53)"/>
<path d="M0 0 C11.55 0 23.1 0 35 0 C35 1.65 35 3.3 35 5 C30.38 5 25.76 5 21 5 C21 20.18 21 35.36 21 51 C19.02 51 17.04 51 15 51 C15 35.82 15 20.64 15 5 C10.05 5 5.1 5 0 5 C0 3.35 0 1.7 0 0 Z " fill="#FCFBFA" transform="translate(115,53)"/>
<path d="M0 0 C2.51083114 1.25541557 2.87125446 2.50063488 4 5 C4.87011719 4.82210937 4.87011719 4.82210937 5.7578125 4.640625 C9.97391164 3.94489907 12.44657643 3.7825836 16.5 5.375 C19.94761434 8.99499505 19.97924536 12.14341524 20 17 C18.9681892 14.94927604 17.95455666 12.90059269 17 10.8125 C16.12855431 8.82798477 16.12855431 8.82798477 14 8 C8.83031521 7.3900832 8.83031521 7.3900832 4.27734375 9.23828125 C2.24546327 12.04066075 2.47043754 14.4790538 2.57421875 17.84375 C2.85636265 20.28363065 2.85636265 20.28363065 5.3125 22.4375 C6.199375 22.953125 7.08625 23.46875 8 24 C8.99 24.66 9.98 25.32 11 26 C5.25 27.125 5.25 27.125 3 26 C3 25.34 3 24.68 3 24 C0.52733235 24.34444881 0.52733235 24.34444881 -2 25 C-2.33 25.66 -2.66 26.32 -3 27 C-5.64 27 -8.28 27 -11 27 C-11 26.34 -11 25.68 -11 25 C-10.37351562 24.90203125 -9.74703125 24.8040625 -9.1015625 24.703125 C-8.28429688 24.55359375 -7.46703125 24.4040625 -6.625 24.25 C-5.81289063 24.11078125 -5.00078125 23.9715625 -4.1640625 23.828125 C-1.89555382 23.18157811 -1.89555382 23.18157811 -0.71484375 21.2734375 C0.15067269 18.52081143 0.15954351 16.25525133 0.0625 13.375 C-0.09722222 8.19444444 -0.09722222 8.19444444 1 6 C-2.63 6 -6.26 6 -10 6 C-10.928125 7.670625 -10.928125 7.670625 -11.875 9.375 C-13.13281231 11.63906215 -14.14615142 13.14615142 -16 15 C-16.30495508 11.11182268 -16.29233945 8.5973893 -14.5625 5.0625 C-11.25225403 2.39815568 -9.15351687 2.54818698 -5.0234375 2.7265625 C-3 3 -3 3 -1 4 C-0.67 2.68 -0.34 1.36 0 0 Z " fill="#694792" transform="translate(68,116)"/>
<path d="M0 0 C1.9375 1.6875 1.9375 1.6875 3 4 C3 5.65 3 7.3 3 9 C-0.96 9 -4.92 9 -9 9 C-8.01 10.65 -7.02 12.3 -6 14 C-3.95714939 14.60024521 -3.95714939 14.60024521 -1.8125 14.3125 C-0.554375 14.209375 0.70375 14.10625 2 14 C2 14.66 2 15.32 2 16 C-1.21804148 17.60902074 -4.51947705 17.59842983 -8 17 C-11.24985922 14.31886615 -11.89575014 12.64866582 -12.5625 8.5 C-12 5 -12 5 -9.9375 2.0625 C-6.27797254 -0.50695545 -4.38290313 -0.73048385 0 0 Z " fill="#F3E0F6" transform="translate(113,123)"/>
<path d="M0 0 C0.33 1.32 0.66 2.64 1 4 C-0.13888672 3.93039063 -0.13888672 3.93039063 -1.30078125 3.859375 C-2.29464844 3.82328125 -3.28851563 3.7871875 -4.3125 3.75 C-5.79169922 3.68039063 -5.79169922 3.68039063 -7.30078125 3.609375 C-10.0926501 3.74613406 -10.0926501 3.74613406 -11.83984375 5.765625 C-13.06039551 8.11631727 -13.35220786 9.38347885 -13.25 12 C-13.23453125 12.66 -13.2190625 13.32 -13.203125 14 C-12.99225298 16.07627831 -12.55609848 17.99086999 -12 20 C-10.39602723 20.16852247 -8.7918131 20.33474886 -7.1875 20.5 C-5.84751953 20.63921875 -5.84751953 20.63921875 -4.48046875 20.78125 C-1.91694901 21.04392401 -1.91694901 21.04392401 1 21 C0.67 21.99 0.34 22.98 0 24 C-9.96651077 24.78545181 -9.96651077 24.78545181 -14.125 21.625 C-17.39820019 17.04251973 -17.5274832 13.53377835 -17 8 C-15.699544 4.85152757 -14.4485648 3.38259939 -11.875 1.1875 C-7.88268714 -0.46149879 -4.2616654 -0.2506862 0 0 Z " fill="#F1DFF7" transform="translate(66,116)"/>
<path d="M0 0 C5.94 0 11.88 0 18 0 C17.67 0.66 17.34 1.32 17 2 C16.34 2 15.68 2 15 2 C15 2.66 15 3.32 15 4 C15.99 4.33 16.98 4.66 18 5 C17.84152588 6.00554932 17.68305176 7.01109863 17.51977539 8.04711914 C17.02528944 11.80767435 16.79743517 15.45680069 16.68359375 19.24609375 C16.66281265 19.90207047 16.64203156 20.55804718 16.62062073 21.23390198 C16.55594062 23.30167546 16.49662534 25.36956101 16.4375 27.4375 C16.39423693 28.85092242 16.35062035 30.26433407 16.30664062 31.67773438 C16.20034484 35.11837471 16.09885528 38.55913692 16 42 C15.67 42 15.34 42 15 42 C15 29.79 15 17.58 15 5 C10.05 5 5.1 5 0 5 C0 3.35 0 1.7 0 0 Z " fill="#FEF7FE" transform="translate(115,53)"/>
<path d="M0 0 C1.58206057 0.00667536 3.16410534 0.0186375 4.74609375 0.03515625 C5.55240234 0.03966797 6.35871094 0.04417969 7.18945312 0.04882812 C9.18753131 0.06065107 11.18557158 0.07858711 13.18359375 0.09765625 C13.18359375 1.74765625 13.18359375 3.39765625 13.18359375 5.09765625 C8.56359375 5.09765625 3.94359375 5.09765625 -0.81640625 5.09765625 C-0.81640625 20.27765625 -0.81640625 35.45765625 -0.81640625 51.09765625 C-1.14640625 51.09765625 -1.47640625 51.09765625 -1.81640625 51.09765625 C-1.98423514 44.42260432 -2.14419806 37.74739779 -2.29858398 31.07202148 C-2.35209105 28.79919117 -2.40742681 26.52640317 -2.46459961 24.25366211 C-2.54626841 20.99472176 -2.62144876 17.73568789 -2.6953125 14.4765625 C-2.72234756 13.45365616 -2.74938263 12.43074982 -2.77723694 11.37684631 C-2.79733322 10.4359465 -2.8174295 9.49504669 -2.83813477 8.52563477 C-2.85812027 7.69290543 -2.87810577 6.86017609 -2.8986969 6.00221252 C-2.81640625 4.09765625 -2.81640625 4.09765625 -1.81640625 3.09765625 C-2.80640625 2.43765625 -3.79640625 1.77765625 -4.81640625 1.09765625 C-3.81640625 0.09765625 -3.81640625 0.09765625 0 0 Z " fill="#E3DAE9" transform="translate(136.81640625,52.90234375)"/>
<path d="M0 0 C1.875 1.5625 1.875 1.5625 3 4 C2.67272727 10.32727273 2.67272727 10.32727273 0 13 C-3.5625 12.75 -3.5625 12.75 -7 12 C-8.52491998 8.95016004 -8.23562548 6.3576631 -8 3 C-5.96513637 -0.32004065 -3.73886079 -0.65430064 0 0 Z " fill="#6C4597" transform="translate(81,125)"/>
<path d="M0 0 C2.5 1.4375 2.5 1.4375 4 4 C4.76004105 8.31481639 4.73570183 11.74317604 2.5 15.5625 C-1.0502437 17.60389013 -4.00285328 17.77813307 -8 17 C-10.5 15.5625 -10.5 15.5625 -12 13 C-12.76004105 8.68518361 -12.73570183 5.25682396 -10.5 1.4375 C-6.9497563 -0.60389013 -3.99714672 -0.77813307 0 0 Z M-7.8125 3.0625 C-9.67036623 6.09375543 -9.37133265 8.53422859 -9 12 C-7.95625978 14.04451019 -7.95625978 14.04451019 -6 15 C-3.5 15.58333333 -3.5 15.58333333 -1 15 C1.04826062 13.52040427 1.04826062 13.52040427 2 11 C1.81541642 5.94892809 1.81541642 5.94892809 -1 2 C-3.77457104 1.64428576 -5.37896796 1.63594673 -7.8125 3.0625 Z " fill="#F6E5FB" transform="translate(82,123)"/>
<path d="M0 0 C6.27 0 12.54 0 19 0 C19 1.98 19 3.96 19 6 C12.73 6 6.46 6 0 6 C-1 3 -1 3 0 0 Z " fill="#EEE2F7" transform="translate(89,75)"/>
<path d="M0 0 C5.94 0 11.88 0 18 0 C18 0.33 18 0.66 18 1 C12.39 1 6.78 1 1 1 C1 5.62 1 10.24 1 15 C6.94 15 12.88 15 19 15 C19.33 16.65 19.66 18.3 20 20 C20.33 20.66 20.66 21.32 21 22 C18.73957429 23.13021285 17.07089004 23.26934344 14.5625 23.5 C11.78512294 23.75623248 9.67337533 24.10887489 7 25 C5.96875 25.144375 4.9375 25.28875 3.875 25.4375 C2.92625 25.623125 1.9775 25.80875 1 26 C0.67 26.66 0.34 27.32 0 28 C0 26.02 0 24.04 0 22 C5.94 22 11.88 22 18 22 C18 20.02 18 18.04 18 16 C12.06 16 6.12 16 0 16 C0 10.72 0 5.44 0 0 Z " fill="#482572" transform="translate(90,59)"/>
<path d="M0 0 C0.33 0 0.66 0 1 0 C1.33 9.9 1.66 19.8 2 30 C-1.63 30.33 -5.26 30.66 -9 31 C-9.66 29.68 -10.32 28.36 -11 27 C-11.66 27 -12.32 27 -13 27 C-13.33 25.35 -13.66 23.7 -14 22 C-13.01 22 -12.02 22 -11 22 C-10.608125 22.804375 -10.21625 23.60875 -9.8125 24.4375 C-9.214375 25.283125 -8.61625 26.12875 -8 27 C-5.36 27.33 -2.72 27.66 0 28 C0 18.76 0 9.52 0 0 Z " fill="#634387" transform="translate(70,76)"/>
<path d="M0 0 C5.57142857 5.14285714 5.57142857 5.14285714 6 9 C5.34 8.67 4.68 8.34 4 8 C3.7525 8.61875 3.505 9.2375 3.25 9.875 C1.77753937 12.37818306 0.58971163 12.83045281 -2 14 C-2.33 14.66 -2.66 15.32 -3 16 C-14.88 16 -26.76 16 -39 16 C-39 15.67 -39 15.34 -39 15 C-28.11 15 -17.22 15 -6 15 C-6 14.01 -6 13.02 -6 12 C-2.535 11.505 -2.535 11.505 1 11 C1.020625 9.741875 1.04125 8.48375 1.0625 7.1875 C1.07410156 6.47980469 1.08570313 5.77210937 1.09765625 5.04296875 C1.08263217 2.79694539 1.08263217 2.79694539 0 0 Z " fill="#4B2677" transform="translate(154,36)"/>
<path d="M0 0 C0.99 0.99 1.98 1.98 3 3 C1.68 3.99 0.36 4.98 -1 6 C-0.071875 6.268125 0.85625 6.53625 1.8125 6.8125 C4.76240366 7.91148371 6.05615186 8.62418561 8 11 C7.01 11 6.02 11 5 11 C4.67 10.67 4.34 10.34 4 10 C0.27855455 9.64892024 -2.12919394 9.47293318 -5.375 11.4375 C-7.71075023 15.12079843 -7.81663185 18.70918538 -8 23 C-8.33 23 -8.66 23 -9 23 C-9 18.38 -9 13.76 -9 9 C-7.02 8.67 -5.04 8.34 -3 8 C-3.99 6.68 -4.98 5.36 -6 4 C-3 2 -3 2 0 2 C0 1.34 0 0.68 0 0 Z " fill="#66418D" transform="translate(109,114)"/>
<path d="M0 0 C0.33 0.66 0.66 1.32 1 2 C1.66 2.33 2.32 2.66 3 3 C1.50468364 6.80625982 -0.58980056 8.77940501 -4 11 C-6.625 11.4375 -6.625 11.4375 -9 11 C-10.8125 9.6875 -10.8125 9.6875 -12 8 C-12 7.01 -12 6.02 -12 5 C-8.04 5 -4.08 5 0 5 C0 3.35 0 1.7 0 0 Z " fill="#6B4D97" transform="translate(116,127)"/>
<path d="M0 0 C1.21160684 2.42321368 0.94569291 3.69756514 0.75 6.375 C0.67356198 10.34861825 0.67356198 10.34861825 3.3125 13.4375 C4.199375 13.953125 5.08625 14.46875 6 15 C6.99 15.66 7.98 16.32 9 17 C3.25 18.125 3.25 18.125 1 17 C1 16.34 1 15.68 1 15 C-1.47266765 15.34444881 -1.47266765 15.34444881 -4 16 C-4.33 16.66 -4.66 17.32 -5 18 C-7.64 18 -10.28 18 -13 18 C-13 17.34 -13 16.68 -13 16 C-12.06027344 15.85304687 -12.06027344 15.85304687 -11.1015625 15.703125 C-10.28429688 15.55359375 -9.46703125 15.4040625 -8.625 15.25 C-7.81289063 15.11078125 -7.00078125 14.9715625 -6.1640625 14.828125 C-3.882398 14.18607085 -3.882398 14.18607085 -2.74609375 12.21484375 C-1.95378716 9.86281318 -1.62951924 7.78423706 -1.4375 5.3125 C-1.09964413 1.09964413 -1.09964413 1.09964413 0 0 Z " fill="#614383" transform="translate(70,125)"/>
<path d="M0 0 C0.66 0 1.32 0 2 0 C1.03778654 6.25438746 -3.47411456 10.90515127 -8 15 C-13.51351351 19 -13.51351351 19 -16 19 C-16.33 19.66 -16.66 20.32 -17 21 C-17 18 -17 18 -15.05859375 16.0546875 C-14.19363281 15.33539063 -13.32867187 14.61609375 -12.4375 13.875 C-8.11133819 10.13793256 -4.68208596 6.30293338 -1.375 1.65234375 C-0.92125 1.10707031 -0.4675 0.56179687 0 0 Z " fill="#F6ECFB" transform="translate(156,142)"/>
<path d="M0 0 C1.9375 1.6875 1.9375 1.6875 3 4 C3 5.65 3 7.3 3 9 C-0.96 9 -4.92 9 -9 9 C-9 8.67 -9 8.34 -9 8 C-6.03 8 -3.06 8 0 8 C-0.66 6.35 -1.32 4.7 -2 3 C-6.31392226 3.4793247 -8.16569547 4.7457985 -11 8 C-11.25 5.6875 -11.25 5.6875 -11 3 C-7.88074804 -0.61833228 -4.55283315 -0.57945149 0 0 Z " fill="#F0DFF7" transform="translate(113,123)"/>
<path d="M0 0 C0.66 0 1.32 0 2 0 C2.45375 0.639375 2.9075 1.27875 3.375 1.9375 C5.21084873 4.2676157 6.12909413 4.60401298 9 5 C9 5.99 9 6.98 9 8 C10.5354878 9.46090788 10.5354878 9.46090788 12.5 10.6875 C13.1496875 11.12449219 13.799375 11.56148437 14.46875 12.01171875 C14.9740625 12.33785156 15.479375 12.66398438 16 13 C17.32 11.68 18.64 10.36 20 9 C20.33 9.66 20.66 10.32 21 11 C20.67 11.66 20.34 12.32 20 13 C19.34 13 18.68 13 18 13 C20.54456151 15.96865509 23.48994665 17.3619751 27 19 C24 20 24 20 21.46875 18.8828125 C2.23242965 7.49288598 2.23242965 7.49288598 0.19921875 1.73046875 C0.10060547 0.87388672 0.10060547 0.87388672 0 0 Z " fill="#614482" transform="translate(19,151)"/>
<path d="M0 0 C0 0.66 0 1.32 0 2 C0.73605469 2.12117187 1.47210938 2.24234375 2.23046875 2.3671875 C3.20628906 2.53476563 4.18210937 2.70234375 5.1875 2.875 C6.15042969 3.03742188 7.11335938 3.19984375 8.10546875 3.3671875 C10.91032604 3.98039517 13.37224747 4.85666343 16 6 C16 6.33 16 6.66 16 7 C9.8673169 7.26451982 4.90589705 6.43864372 -0.9375 4.625 C-1.70384766 4.40328125 -2.47019531 4.1815625 -3.25976562 3.953125 C-5.19505029 3.3703112 -7.10116119 2.69239426 -9 2 C-9.33 1.34 -9.66 0.68 -10 0 C-6.33694766 -0.74926071 -3.57644848 -1.2380014 0 0 Z " fill="#644789" transform="translate(58,172)"/>
<path d="M0 0 C0.66 0 1.32 0 2 0 C2.33 0.66 2.66 1.32 3 2 C3.66 1.34 4.32 0.68 5 0 C5.99 0 6.98 0 8 0 C8 0.66 8 1.32 8 2 C7.03320312 2.29003906 7.03320312 2.29003906 6.046875 2.5859375 C3.65648799 3.88708247 3.65648799 3.88708247 3.390625 7.0390625 C3.34421875 8.22242188 3.2978125 9.40578125 3.25 10.625 C3.19328125 11.81351563 3.1365625 13.00203125 3.078125 14.2265625 C3.05234375 15.14179688 3.0265625 16.05703125 3 17 C2.01 17 1.02 17 0 17 C0 11.39 0 5.78 0 0 Z " fill="#EFE2F3" transform="translate(91,123)"/>
<path d="M0 0 C7.425 0.99 7.425 0.99 15 2 C15 2.33 15 2.66 15 3 C14.11248047 3.07347656 14.11248047 3.07347656 13.20703125 3.1484375 C6.8356128 3.64144448 6.8356128 3.64144448 1 6 C-1.74631702 10.39410722 -1.62700581 15.9449471 -2 21 C-2.33 21 -2.66 21 -3 21 C-3.19926199 8.55719557 -3.19926199 8.55719557 -2 4 C-1.34 3.67 -0.68 3.34 0 3 C0 2.01 0 1.02 0 0 Z " fill="#5A3D78" transform="translate(51,113)"/>
<path d="M0 0 C0.33 0.66 0.66 1.32 1 2 C1.66 2 2.32 2 3 2 C3.33 4.64 3.66 7.28 4 10 C4.66 10 5.32 10 6 10 C7.625 11.3125 7.625 11.3125 9 13 C9 13.99 9 14.98 9 16 C9.66 16 10.32 16 11 16 C11 17.32 11 18.64 11 20 C7.58744621 18.86248207 7.30489161 18.34702901 5.51953125 15.40234375 C5.07802734 14.68369141 4.63652344 13.96503906 4.18164062 13.22460938 C3.72982422 12.46986328 3.27800781 11.71511719 2.8125 10.9375 C2.34908203 10.17888672 1.88566406 9.42027344 1.40820312 8.63867188 C0.26433294 6.76366817 -0.87128255 4.88415078 -2 3 C-1.34 2.01 -0.68 1.02 0 0 Z " fill="#644988" transform="translate(43,58)"/>
<path d="M0 0 C2.97 0.495 2.97 0.495 6 1 C6.91194105 4.56486048 7.26830444 6.39631501 5.75 9.8125 C4 12 4 12 1 13 C-2.1875 11.0625 -2.1875 11.0625 -5 9 C-4.67 7.02 -4.34 5.04 -4 3 C-3.67 3 -3.34 3 -3 3 C-2.34 4.98 -1.68 6.96 -1 9 C0.65 8.67 2.3 8.34 4 8 C3.67 6.35 3.34 4.7 3 3 C2.01 2.67 1.02 2.34 0 2 C0 1.34 0 0.68 0 0 Z " fill="#66478A" transform="translate(13,95)"/>
<path d="M0 0 C2.625 0.375 2.625 0.375 5 1 C5.625 3.375 5.625 3.375 6 6 C5.34 6.66 4.68 7.32 4 8 C1.375 7.625 1.375 7.625 -1 7 C-1.625 4.625 -1.625 4.625 -2 2 C-1.34 1.34 -0.68 0.68 0 0 Z " fill="#F3E2FA" transform="translate(12,97)"/>
<path d="M0 0 C3.78699616 3.36621881 6.8272631 7.41641804 9 12 C8.67 12.66 8.34 13.32 8 14 C7.34 12.68 6.68 11.36 6 10 C3.2160817 11.39195915 3.02101003 13.15575779 2 16 C1.34 15.67 0.68 15.34 0 15 C-0.1875 12.125 -0.1875 12.125 0 9 C0.99 8.34 1.98 7.68 3 7 C2.505 6.21625 2.01 5.4325 1.5 4.625 C0 2 0 2 0 0 Z " fill="#64428D" transform="translate(41,72)"/>
<path d="M0 0 C0.33 0 0.66 0 1 0 C0.67 2.97 0.34 5.94 0 9 C-0.99 9 -1.98 9 -3 9 C-2.505 9.928125 -2.505 9.928125 -2 10.875 C-1 13 -1 13 -1 15 C-0.67 15.66 -0.34 16.32 0 17 C-1.32 17.33 -2.64 17.66 -4 18 C-4.02725341 16.2709226 -4.04650987 14.54171824 -4.0625 12.8125 C-4.07410156 11.84957031 -4.08570312 10.88664063 -4.09765625 9.89453125 C-4.00486622 7.14423487 -3.62111685 4.67520409 -3 2 C-2.01 2 -1.02 2 0 2 C0 1.34 0 0.68 0 0 Z " fill="#754DA9" transform="translate(99,123)"/>
<path d="M0 0 C3.86026619 0.85152931 5.6973159 1.62821257 8 5 C8.33752295 8.35940814 8.23113748 11.63566555 8 15 C6.01158588 12.01737882 4.46328268 9.02359325 2.875 5.8125 C2.33617187 4.72582031 1.79734375 3.63914063 1.2421875 2.51953125 C0.83226562 1.68808594 0.42234375 0.85664062 0 0 Z " fill="#F3EBF8" transform="translate(158,40)"/>
<path d="M0 0 C1.65 0 3.3 0 5 0 C1.86504984 3.53548434 -1.28314268 5.35051934 -5.5625 7.3125 C-7.26599609 8.11107422 -7.26599609 8.11107422 -9.00390625 8.92578125 C-12 10 -12 10 -15 9 C-11.35255181 5.67438548 -8.88956266 4.52016624 -4 4 C-2.66262906 3.68325425 -1.32711192 3.35729936 0 3 C0 2.01 0 1.02 0 0 Z " fill="#573980" transform="translate(128,164)"/>
<path d="M0 0 C0.66 0 1.32 0 2 0 C1.45276317 3.37462715 0.9451 5.08235 -1 8 C-1.66 8 -2.32 8 -3 8 C-3 9.65 -3 11.3 -3 13 C-4.32 13.33 -5.64 13.66 -7 14 C-5.58163643 8.8423143 -3.32608425 4.20024742 0 0 Z " fill="#6A4A8D" transform="translate(8,40)"/>
<path d="M0 0 C1.26041675 2.5208335 0.66225891 3.35096436 0 6 C0.33 6.66 0.66 7.32 1 8 C0.01 8.99 -0.98 9.98 -2 11 C-4.03435531 7.27034861 -5 5.33094958 -5 1 C-3 0 -3 0 0 0 Z " fill="#6A4791" transform="translate(6,123)"/>
<path d="M0 0 C1.32 0.33 2.64 0.66 4 1 C5.32967033 7.28571429 5.32967033 7.28571429 3.875 10.4375 C2 12 2 12 -0.6875 12.25 C-1.450625 12.1675 -2.21375 12.085 -3 12 C-3.33 11.34 -3.66 10.68 -4 10 C-2.02 9.67 -0.04 9.34 2 9 C2.33 7.02 2.66 5.04 3 3 C2.34 3 1.68 3 1 3 C0.67 3.66 0.34 4.32 0 5 C0 3.35 0 1.7 0 0 Z " fill="#604682" transform="translate(79,126)"/>
<path d="M0 0 C1.67542976 0.28604898 3.34385343 0.61781233 5 1 C5.33 2.32 5.66 3.64 6 5 C3.03 5 0.06 5 -3 5 C-1 1 -1 1 0 0 Z " fill="#644989" transform="translate(107,125)"/>
<path d="M0 0 C3.91593446 0.78318689 7.36406635 2.39179858 11 4 C10.67 5.32 10.34 6.64 10 8 C6.37 6.02 2.74 4.04 -1 2 C-0.67 1.34 -0.34 0.68 0 0 Z " fill="#F5ECF9" transform="translate(124,8)"/>
<path d="M0 0 C3.96 0.33 7.92 0.66 12 1 C12.33 2.32 12.66 3.64 13 5 C12.34 5 11.68 5 11 5 C11 4.34 11 3.68 11 3 C7.37 3 3.74 3 0 3 C0 2.01 0 1.02 0 0 Z " fill="#56327F" transform="translate(92,1)"/>
<path d="M0 0 C0.33 0.66 0.66 1.32 1 2 C1.66 2 2.32 2 3 2 C3.66 4.97 4.32 7.94 5 11 C4.01 11 3.02 11 2 11 C0 9 0 9 -0.1953125 6.8359375 C-0.17210938 6.02382812 -0.14890625 5.21171875 -0.125 4.375 C-0.10695313 3.55773437 -0.08890625 2.74046875 -0.0703125 1.8984375 C-0.04710938 1.27195313 -0.02390625 0.64546875 0 0 Z " fill="#EEDBF3" transform="translate(70,127)"/>
<path d="M0 0 C0.66 0 1.32 0 2 0 C2.33 0.99 2.66 1.98 3 3 C0.69 4.98 -1.62 6.96 -4 9 C-4.66 8.67 -5.32 8.34 -6 8 C-5.67 6.68 -5.34 5.36 -5 4 C-3.35 3.67 -1.7 3.34 0 3 C0 2.01 0 1.02 0 0 Z " fill="#644385" transform="translate(144,151)"/>
<path d="M0 0 C0.350625 0.639375 0.70125 1.27875 1.0625 1.9375 C3.77184206 4.82163832 6.15858911 4.7100822 10 5 C9.67 5.66 9.34 6.32 9 7 C2.12205567 7.31263383 2.12205567 7.31263383 -1 5 C-1.75 2.875 -1.75 2.875 -2 1 C-1.34 0.67 -0.68 0.34 0 0 Z " fill="#624282" transform="translate(55,131)"/>
<path d="M0 0 C0.66 0.33 1.32 0.66 2 1 C-1.14285714 8.42857143 -1.14285714 8.42857143 -3 12 C-3.33 12 -3.66 12 -4 12 C-4.33292585 7.75519536 -4.43885872 5.64457375 -2 2.0625 C-1.34 1.381875 -0.68 0.70125 0 0 Z " fill="#6D508C" transform="translate(56,119)"/>
<path d="M0 0 C3.23435168 2.17967178 3.98499385 3.19947419 4.875 6.9375 C5 9.75 5 9.75 4.875 11.9375 C3.85991277 9.90732553 2.8539117 7.88969985 1.9375 5.8125 C0.87759733 3.61392241 0.87759733 3.61392241 -2.125 1.9375 C-3.78049531 1.55250109 -5.4472433 1.20956865 -7.125 0.9375 C-4.26094959 -1.15545992 -3.44363436 -1.17083568 0 0 Z " fill="#634082" transform="translate(83.125,121.0625)"/>
<path d="M0 0 C2.54055845 0.25552438 5.03852505 0.56707159 7.5625 0.9375 C8.27341797 1.03740234 8.98433594 1.13730469 9.71679688 1.24023438 C11.47856957 1.48853791 13.23938152 1.74364039 15 2 C15 2.33 15 2.66 15 3 C13.75283203 3.09087891 13.75283203 3.09087891 12.48046875 3.18359375 C10.85044922 3.30927734 10.85044922 3.30927734 9.1875 3.4375 C7.56908203 3.55931641 7.56908203 3.55931641 5.91796875 3.68359375 C2.94010095 3.90212461 2.94010095 3.90212461 0 5 C-0.5625 3.0625 -0.5625 3.0625 -1 1 C-0.67 0.67 -0.34 0.34 0 0 Z " fill="#603C86" transform="translate(51,113)"/>
<path d="M0 0 C0.33 0.66 0.66 1.32 1 2 C1.66 2 2.32 2 3 2 C3.33 4.97 3.66 7.94 4 11 C1.59927045 8.11912454 -0.47291037 5.43595166 -2 2 C-1.34 1.34 -0.68 0.68 0 0 Z " fill="#6C4D8D" transform="translate(43,58)"/>
<path d="M0 0 C2.97 0 5.94 0 9 0 C9.33 1.32 9.66 2.64 10 4 C7.03 3.67 4.06 3.34 1 3 C0.67 2.01 0.34 1.02 0 0 Z " fill="#D6BDE7" transform="translate(57,116)"/>
<path d="M0 0 C0.33 1.32 0.66 2.64 1 4 C-3.455 5.485 -3.455 5.485 -8 7 C-6.5361389 2.60841671 -4.02168662 2.12052567 0 0 Z " fill="#56377D" transform="translate(43,9)"/>
<path d="M0 0 C1.65 0 3.3 0 5 0 C4.01 0.495 4.01 0.495 3 1 C2.53476937 2.89533342 2.53476937 2.89533342 2.375 5.0625 C2.25125 6.361875 2.1275 7.66125 2 9 C0.4375 7.3125 0.4375 7.3125 -1 5 C-0.6875 2.25 -0.6875 2.25 0 0 Z " fill="#6E499D" transform="translate(76,125)"/>
<path d="M0 0 C1.32 0 2.64 0 4 0 C4 1.65 4 3.3 4 5 C2.35 5 0.7 5 -1 5 C-0.67 3.35 -0.34 1.7 0 0 Z " fill="#4F2F79" transform="translate(110,53)"/>
<path d="M0 0 C1.5625 1.1875 1.5625 1.1875 3 3 C2.84946418 6.01071639 2.41319987 7.52068815 0.4375 9.8125 C-0.036875 10.204375 -0.51125 10.59625 -1 11 C-0.67 9.02 -0.34 7.04 0 5 C-0.66 4.67 -1.32 4.34 -2 4 C-2 3.34 -2 2.68 -2 2 C-1.34 2 -0.68 2 0 2 C0 1.34 0 0.68 0 0 Z " fill="#492477" transform="translate(162,122)"/>
<path d="M0 0 C0 3.93169105 -1.39419615 5.16427228 -4 8 C-4.66 8 -5.32 8 -6 8 C-6.33 6.68 -6.66 5.36 -7 4 C-5.68 4 -4.36 4 -3 4 C-3 3.34 -3 2.68 -3 2 C-2.01 1.34 -1.02 0.68 0 0 Z " fill="#4A2971" transform="translate(152,145)"/>
<path d="M0 0 C0.66 0.66 1.32 1.32 2 2 C4.44012949 2.24287489 4.44012949 2.24287489 7.125 2.125 C8.03507812 2.10695312 8.94515625 2.08890625 9.8828125 2.0703125 C10.58148438 2.04710937 11.28015625 2.02390625 12 2 C12 2.33 12 2.66 12 3 C9.03 3 6.06 3 3 3 C2.34 4.32 1.68 5.64 1 7 C0.67 7 0.34 7 0 7 C0 4.69 0 2.38 0 0 Z " fill="#EBD8EF" transform="translate(101,128)"/>
<path d="M0 0 C1.22589844 0.15275391 1.22589844 0.15275391 2.4765625 0.30859375 C3.41628906 0.43427734 3.41628906 0.43427734 4.375 0.5625 C4.045 1.2225 3.715 1.8825 3.375 2.5625 C2.2303125 2.500625 2.2303125 2.500625 1.0625 2.4375 C-1.85218416 2.34169176 -1.85218416 2.34169176 -4.625 4.5625 C-4.625 3.5725 -4.625 2.5825 -4.625 1.5625 C-5.285 1.2325 -5.945 0.9025 -6.625 0.5625 C-4.10446405 -0.69776798 -2.7707902 -0.35624445 0 0 Z " fill="#6C4E8A" transform="translate(97.625,121.4375)"/>
<path d="M0 0 C2.94721162 2.74395564 5.19168608 5.38337216 7 9 C6.67 9.66 6.34 10.32 6 11 C3.7522025 8.94766315 2.9977758 7.99332739 2 5 C1.34 4.67 0.68 4.34 0 4 C0 2.68 0 1.36 0 0 Z " fill="#634487" transform="translate(50,86)"/>
<path d="M0 0 C2.2751756 2.20642029 3.90218833 3.98101792 5 7 C4.625 9.25 4.625 9.25 4 11 C3.34 10.67 2.68 10.34 2 10 C1.3671875 7.71484375 1.3671875 7.71484375 0.875 4.9375 C0.70742187 4.01839844 0.53984375 3.09929688 0.3671875 2.15234375 C0.24601563 1.44207031 0.12484375 0.73179688 0 0 Z " fill="#503272" transform="translate(160,45)"/>
<path d="M0 0 C4.455 0.99 4.455 0.99 9 2 C9 2.33 9 2.66 9 3 C7.35 3 5.7 3 4 3 C4 3.66 4 4.32 4 5 C2.68 4.67 1.36 4.34 0 4 C0 2.68 0 1.36 0 0 Z " fill="#735597" transform="translate(53,138)"/>
<path d="M0 0 C0.99 0.33 1.98 0.66 3 1 C2.67 1.99 2.34 2.98 2 4 C2.39397335 6.63804589 2.39397335 6.63804589 3 9 C2.34 8.34 1.68 7.68 1 7 C0.01 7.495 0.01 7.495 -1 8 C-1.125 2.25 -1.125 2.25 0 0 Z " fill="#624388" transform="translate(74,126)"/>
<path d="M0 0 C3.375 -0.125 3.375 -0.125 7 0 C7.66 0.66 8.32 1.32 9 2 C5.7955129 3.06816237 3.35033432 3 0 3 C-0.99 3.495 -0.99 3.495 -2 4 C-1.34 2.68 -0.68 1.36 0 0 Z " fill="#5F427F" transform="translate(58,119)"/>
<path d="M0 0 C7.81818182 2.54545455 7.81818182 2.54545455 11 4 C11.33 4.66 11.66 5.32 12 6 C7.01208429 5.52496041 3.9767259 4.0298864 0 1 C0 0.67 0 0.34 0 0 Z " fill="#512A7E" transform="translate(131,18)"/>
<path d="M0 0 C4.31392226 0.4793247 6.16569547 1.7457985 9 5 C5.30581799 5 3.22163822 3.71820705 0 2 C0 1.34 0 0.68 0 0 Z " fill="#5B3984" transform="translate(131,16)"/>
<path d="M0 0 C0.99 0.33 1.98 0.66 3 1 C2.34 5.29 1.68 9.58 1 14 C0.67 14 0.34 14 0 14 C0 9.38 0 4.76 0 0 Z " fill="#533575" transform="translate(100,123)"/>
<path d="M0 0 C0.66 0.33 1.32 0.66 2 1 C2 1.99 2 2.98 2 4 C-1.96 4 -5.92 4 -10 4 C-10 3.67 -10 3.34 -10 3 C-9.36191406 2.95101562 -8.72382812 2.90203125 -8.06640625 2.8515625 C-7.24011719 2.77679688 -6.41382812 2.70203125 -5.5625 2.625 C-4.73878906 2.55539063 -3.91507812 2.48578125 -3.06640625 2.4140625 C-2.38449219 2.27742187 -1.70257813 2.14078125 -1 2 C-0.67 1.34 -0.34 0.68 0 0 Z " fill="#FEF2FE" transform="translate(114,128)"/>
<path d="M0 0 C1.77706209 2.66559313 2.87548273 5.0280615 4 8 C3.34 8 2.68 8 2 8 C1.67 8.66 1.34 9.32 1 10 C-0.1577506 6.52674819 -0.06866652 3.63932552 0 0 Z " fill="#F5E9FA" transform="translate(0,125)"/>
<path d="M0 0 C0.99 0.33 1.98 0.66 3 1 C2.6875 2.9375 2.6875 2.9375 2 5 C1.01 5.33 0.02 5.66 -1 6 C-1.042721 4.33388095 -1.04063832 2.66617115 -1 1 C-0.67 0.67 -0.34 0.34 0 0 Z " fill="#FCF5FB" transform="translate(14,97)"/>
<path d="M0 0 C0.99 1.32 1.98 2.64 3 4 C2.01 4.33 1.02 4.66 0 5 C-0.66 4.67 -1.32 4.34 -2 4 C-2.33 4.66 -2.66 5.32 -3 6 C-3 3 -3 3 -1.5 1.3125 C-0.7575 0.6628125 -0.7575 0.6628125 0 0 Z " fill="#EFE9F3" transform="translate(52,78)"/>
<path d="M0 0 C2.31 1.98 4.62 3.96 7 6 C6.01 6.33 5.02 6.66 4 7 C1.8125 5.8125 1.8125 5.8125 0 4 C0 2.68 0 1.36 0 0 Z " fill="#F2E5F7" transform="translate(13,147)"/>
<path d="M0 0 C0.66 0 1.32 0 2 0 C2 0.99 2 1.98 2 3 C3.65 3 5.3 3 7 3 C6.67 3.66 6.34 4.32 6 5 C4.35 5 2.7 5 1 5 C0.34 3.68 -0.32 2.36 -1 1 C-0.67 0.67 -0.34 0.34 0 0 Z " fill="#593C7F" transform="translate(106,133)"/>
<path d="M0 0 C0.33 0 0.66 0 1 0 C1.2475 0.94875 1.495 1.8975 1.75 2.875 C2.6857077 6.08693191 2.6857077 6.08693191 5.125 7.375 C5.74375 7.58125 6.3625 7.7875 7 8 C4.69 7.67 2.38 7.34 0 7 C-1.125 2.25 -1.125 2.25 0 0 Z " fill="#5B3B7F" transform="translate(9,98)"/>
</svg>
