<?xml version="1.0" encoding="UTF-8"?>
<svg version="1.1" xmlns="http://www.w3.org/2000/svg" width="1255" height="584">
<path d="M0 0 C0 43.56 0 87.12 0 132 C-3.96977591 131.00755602 -7.16027074 129.47534138 -10.73046875 127.5703125 C-12.09133353 126.85513286 -13.45242715 126.14038854 -14.8137207 125.42602539 C-15.52662262 125.05043488 -16.23952454 124.67484436 -16.97402954 124.28787231 C-61.3515164 100.97364617 -109.04016306 83.32189896 -159 77 C-159.69722168 76.9064624 -160.39444336 76.8129248 -161.11279297 76.71655273 C-199.92103762 72.11898824 -239.91752579 77.62023746 -275 95 C-275.64195312 95.31018066 -276.28390625 95.62036133 -276.9453125 95.93994141 C-320.25811092 117.0059141 -351.84267497 156.0551041 -367.46484375 201.1328125 C-382.15495154 245.98855831 -376.32174895 294.70401462 -355.38012695 336.45043945 C-333.56108068 378.59884414 -293.90837485 410.46939521 -248.88549805 425.01586914 C-242.92204255 426.83575238 -236.88365567 428.33624093 -230.8125 429.75 C-229.95857666 429.94891846 -229.10465332 430.14783691 -228.22485352 430.3527832 C-213.89295463 433.51369306 -199.92676727 434.37504127 -185.3125 434.3125 C-184.42881744 434.31067719 -183.54513489 434.30885437 -182.63467407 434.30697632 C-163.68218801 434.24111321 -146.55565289 431.8680942 -128.33496094 426.63842773 C-124.90537065 425.70070517 -121.44931886 424.86232972 -118 424 C-118 389.68 -118 355.36 -118 320 C-148.69 320 -179.38 320 -211 320 C-211 283.04 -211 246.08 -211 208 C-140.38 208 -69.76 208 3 208 C3 305.68 3 403.36 3 504 C-18.01153846 513.33846154 -18.01153846 513.33846154 -27 516.5 C-28.04776611 516.87108887 -29.09553223 517.24217773 -30.17504883 517.62451172 C-77.50697831 534.19403192 -127.77776095 544.89942908 -178.0859375 545.23828125 C-179.29379913 545.2480751 -180.50166077 545.25786896 -181.74612427 545.26795959 C-231.44808838 545.58845145 -231.44808838 545.58845145 -255 541 C-256.09795898 540.80164551 -257.19591797 540.60329102 -258.32714844 540.39892578 C-284.77397226 535.55714635 -310.88500581 526.87371076 -335 515 C-336.38754438 514.33754279 -337.77555796 513.67606735 -339.1640625 513.015625 C-370.58884015 497.88363605 -398.20676311 476.88060347 -422.875 452.375 C-423.74253906 451.51672607 -424.61007812 450.65845215 -425.50390625 449.77416992 C-431.4229255 443.82625806 -436.79631157 437.57930152 -442 431 C-442.48823242 430.39140137 -442.97646484 429.78280273 -443.47949219 429.15576172 C-490.51537614 370.27724612 -511.4706293 295.03294447 -503.40234375 220.29931641 C-496.29174046 161.99064356 -471.86025474 107.82836301 -432.2265625 64.44921875 C-430.78592241 62.86451465 -429.3626593 61.26376161 -427.9609375 59.64453125 C-417.75890886 47.93321373 -406.14744412 37.64234275 -393.75048828 28.31787109 C-392.00061151 27.00046038 -390.26412806 25.66663338 -388.52734375 24.33203125 C-308.10119026 -36.75602182 -207.01121153 -47.73147921 0 0 Z " fill="#E31937" transform="translate(1039,39)"/>
<path d="M0 0 C0 43.89 0 87.78 0 133 C-3.35341261 131.65863495 -5.84588193 130.6081396 -8.79296875 128.75 C-9.49566895 128.31179932 -10.19836914 127.87359863 -10.92236328 127.42211914 C-12.04360596 126.71817017 -12.04360596 126.71817017 -13.1875 126 C-22.30427586 120.36654676 -31.5376248 115.03175717 -41 110 C-41.88365234 109.52949219 -42.76730469 109.05898437 -43.67773438 108.57421875 C-73.43122972 92.8796123 -104.96945013 81.43805557 -138 75 C-139.23943359 74.7522583 -139.23943359 74.7522583 -140.50390625 74.49951172 C-165.15777403 69.7767918 -193.45080633 69.63980717 -218 75 C-218.89187012 75.18804199 -219.78374023 75.37608398 -220.70263672 75.56982422 C-266.62694346 85.54853702 -306.24911122 112.35759818 -332.3203125 151.41796875 C-356.94483526 190.28608801 -368.39874243 239.12226708 -358.5390625 284.63525391 C-358.36117187 285.41562012 -358.18328125 286.19598633 -358 287 C-357.80664062 287.86415527 -357.61328125 288.72831055 -357.4140625 289.61865234 C-346.27662093 337.78636839 -316.76498901 375.36910247 -275.296875 401.34765625 C-230.88325307 428.19041007 -175.85676353 432.99243565 -126.0625 421.1875 C-81.9656162 410.18361894 -41.62702457 388.12890302 -7.56640625 358.109375 C-5 356 -5 356 -1 354 C-1 398.88 -1 443.76 -1 490 C-59.55323295 520.28615497 -120.44310059 541.55071077 -187.0625 541.3125 C-188.68881851 541.30926727 -188.68881851 541.30926727 -190.34799194 541.30596924 C-206.09052792 541.25573436 -221.48964057 540.94112275 -237 538 C-238.65636475 537.69400879 -238.65636475 537.69400879 -240.34619141 537.38183594 C-295.41673851 526.96943306 -346.86200074 503.1737966 -389 466 C-389.77601563 465.33484375 -390.55203125 464.6696875 -391.3515625 463.984375 C-404.19040048 452.77796659 -416.68827643 440.5867719 -427 427 C-427.99709045 425.74091285 -428.9959342 424.48321308 -429.99609375 423.2265625 C-476.43038954 364.38483434 -498.10088112 289.35720202 -489.35498047 214.82861328 C-482.01721165 156.35860674 -457.87816167 101.94918598 -418.1171875 58.3359375 C-416.20919797 56.23081252 -414.34952931 54.09386366 -412.5 51.9375 C-406.20817823 44.73023996 -399.33279686 38.1358427 -392 32 C-391.4548877 31.54109375 -390.90977539 31.0821875 -390.34814453 30.609375 C-376.6986637 19.16072388 -362.37282451 9.02128294 -347 0 C-346.35401855 -0.37979004 -345.70803711 -0.75958008 -345.04248047 -1.15087891 C-253.21955504 -54.73403375 -144.37073234 -51.58401616 0 0 Z " fill="#E31937" transform="translate(491,43)"/>
<path d="M0 0 C39.93 0 79.86 0 121 0 C121 185.13 121 370.26 121 561 C81.07 561 41.14 561 0 561 C0 375.87 0 190.74 0 0 Z " fill="#E31937" transform="translate(1134,12)"/>
</svg>
